<?xml version="1.0" encoding="UTF-8"?>
<svg id="Calque_1" xmlns="http://www.w3.org/2000/svg" version="1.1" viewBox="0 0 980 980">
  <!-- Generator: Adobe Illustrator 30.2.1, SVG Export Plug-In . SVG Version: 2.1.1 Build 1)  -->
  <defs>
    <style>
      .st0 {
        fill: #6ab586;
      }

      .st1 {
        fill: #3fa1bc;
      }

      .st2 {
        fill: #439ea7;
      }

      .st3 {
        fill: #183c53;
      }

      .st4 {
        fill: #3d9cb2;
      }

      .st5 {
        fill: #2188bd;
      }

      .st6 {
        fill: #2189bd;
      }

      .st7 {
        fill: #35a4d8;
      }

      .st8 {
        fill: #8cc04e;
      }

      .st9 {
        fill: #47a3b6;
      }

      .st10 {
        fill: #65b087;
      }

      .st11 {
        fill: #6dbb94;
      }

      .st12 {
        fill: #8ec04d;
      }

      .st13 {
        fill: #33a3d7;
      }

      .st14 {
        fill: #39a3d3;
      }

      .st15 {
        fill: #72bb78;
      }

      .st16 {
        fill: #154663;
      }

      .st17 {
        fill: #33a4d8;
      }

      .st18 {
        fill: #86be50;
      }

      .st19 {
        fill: #f7fbfa;
      }

      .st20 {
        fill: #fbfdfd;
      }

      .st21 {
        fill: #429ba6;
      }

      .st22 {
        fill: #193a4e;
      }

      .st23 {
        fill: #173a4d;
      }

      .st24 {
        fill: #75bc77;
      }

      .st25 {
        fill: #2289bc;
      }

      .st26 {
        fill: #f9fcfc;
      }

      .st27 {
        fill: #8dc04f;
      }

      .st28 {
        fill: #38a4d4;
      }

      .st29 {
        fill: #153b52;
      }

      .st30 {
        fill: #114565;
      }

      .st31 {
        fill: #f8fcfa;
      }

      .st32 {
        fill: #8dc04d;
      }

      .st33 {
        fill: #35a5d6;
      }
    </style>
  </defs>
  <g id="Objet_génératif">
    <path class="st30" d="M362.8,513.6c8,45.7,38,84.1,82.5,102.8,57.7,24.3,125.2,4.8,161.1-47.3l-76.9-.6c-31.1-.2-54.4-26.4-55.5-56.3.7-28.3,21-58,52.3-58.2l216.7-.9c12.7,88.4-20.5,176.8-88.9,233.6-52.1,43.2-120.4,64.2-186.5,58.4-108.7-9.7-198.2-86.5-225.1-189.5-28.3-108.4,17-221.3,111.5-280.9,115.3-72.7,269.9-46.2,351.9,65.7l-90.3,82.6c-35.6-61.3-110.5-85.8-174.3-57.6-57.8,25.6-89.4,87.1-78.6,148.2ZM624,551.9c-.4,6.9,3.4,14.9.4,20.4-25.8,43.2-70.8,68.8-120.5,71.4-55.8,2.9-107.5-25.9-136-70.5-31.2-48.7-32.4-110.2-3.8-159.4,12.1-20.8,23.6-39.4,34.3-60.6,23.9-47,63-86.1,116-100.5-116.8-10.7-225.6,64.4-255.3,178.9-30.7,118.2,34.5,241.9,150.2,283.1,28.2,10,56.2,11.4,86,4.8,65.8-14.4,118.1-64.6,135-130,15.9-61.5-35.1-117.5-95.5-119.4-23.1-.7-41.4,15.6-43.2,37.6s12,42.7,34.5,43l97.8,1.2ZM619,396.7l63.8-58c-23-27.5-49.8-48.2-80.6-63-42.3-22.9-98.6-9.7-135.3,19.1-22.2,17.4-40.7,39.4-52.4,65.2,69-42.2,155.6-25.9,204.5,36.7ZM693.5,615.2c26.4-44.4,38.5-93.8,34.4-145.1l-134.2.3c47.5,28.8,68.4,82.5,49.9,134.5-17.1,53.4-55.7,95-105.7,118.4,65.1-12.5,120.7-51.6,155.6-108.1Z"/>
    <path class="st31" d="M624,551.9l-97.8-1.2c-22.5-.3-36.2-23-34.5-43s20.1-38.3,43.2-37.6c60.4,1.9,111.4,57.9,95.5,119.4-16.9,65.4-69.2,115.6-135,130-29.8,6.5-57.8,5.2-86-4.8-115.8-41.2-180.9-164.9-150.2-283.1,29.7-114.4,138.5-189.6,255.3-178.9-53,14.3-92.1,53.5-116,100.5-10.8,21.2-22.2,39.8-34.3,60.6-28.6,49.2-27.4,110.7,3.8,159.4,28.6,44.6,80.3,73.4,136,70.5,49.7-2.6,94.7-28.2,120.5-71.4,3.1-5.6-.7-13.6-.4-20.4ZM414.2,273.5c-5.1,2.2-10.3,3.6-15.3,6.1-14.5,7.2-29.5,13.7-41.6,24.3-3.9,3.4-11.4,4.5-13.4,10.5-1.9.7-3.7,2-5.3,3.3-53.6,45.3-80.3,113.4-77.5,182,3,72.6,41.9,144.8,105.5,183.9l16.9,10.4c62.1,38.1,142.5,22.6,195.2-29.6,1.7-1.6,3.3-3.2,2.2-4.7-1-1.5.9-1.7,1.9-1.6,12-6.4,33.7-45.5,36.7-62.8-13.8,12.5-26.7,27.9-43.7,36.7-50.8,26.5-111.3,28-161.2-1.6s-68.7-67.4-77.8-114.7c-1.1-5.5-.8-11.6-1.5-17.3-.5-3.9-.4-8.2-.3-12.1.7-30.3,10.5-58.2,25.5-84.3l5.1-8.8,7.4-10.2,9.9-20.4c5.1-10.4,14-22.5,17.9-32.8.7.2,2.2-1.1,3-2.3,14.2-24,33.9-41.9,54.9-58.4s7.9-3.4,10.5-7.2c-19.9,0-37.6,6.2-55,11.6ZM533.2,542.6l6.4-21.2c1.5,0,3.1,1.2,3.8,1.4,1.1.4,2.2-.6,1.5-1.8s-1.1-2-1.5-3.4c6.5-4.9,15.3-2.5,22.3-6.7-7.6-3.1-14.9-2.3-21.3-5.9s1.4-5,2.3-6.4c-3.3-1.2-4.2,1.6-7.7,1.9l-6.1-21.4c-5.8,10.3-1.1,25.4-12.6,19.7.3,1.8,2.2,3.1,2.3,5.9-7.2,3.1-14.4,3.8-22.9,6l23,6.2c0,3.1-2.6,4.3-2.3,6.8,12.1-7.2,6.4,9.4,12.7,18.8ZM527.9,486.9c2.7-12.8-28.9,9.8-21.4,20.7,6.7-9.7,9.3-18.4,21.4-20.7ZM556,503.7c.3,2.2,5,3.5,4.8,1.4-1.3-11.3-11.6-23-23.7-21.1,7.2,7.4,17.5,8.9,18.9,19.7ZM621.3,543c-7.8-26.3-28-47.4-53.6-57.4,11,19.2,9.7,40.5-5,56.2,1.2,4.6,48.7,1.9,58.6,1.3ZM529,538.1c-11.8-6.7-16.6-13.9-23.3-23.9-1.2,13.7,10.6,25.3,23.3,23.9ZM561.4,518.3c.1-3.9-3.5-3-4.4-1.6-1.7,11.6-11.1,14.1-20.5,21.5,12.3,1.9,21.4-8.8,24.9-19.9Z"/>
    <path class="st26" d="M693.5,615.2c-34.9,56.5-90.6,95.6-155.6,108.1,50-23.4,88.6-65.1,105.7-118.4,18.5-52-2.4-105.7-49.9-134.5l134.2-.3c4.2,51.2-8,100.7-34.4,145.1ZM658.6,559.8c0,16.3-1.4,32.5-7.1,49-11,31.8-28.9,59.4-53.4,84.3,78.2-40.2,124.1-123.1,122.2-210.4,0-3.1-.8-3.8-3.5-3.5-2.5-1.4-5.3.2-8.7,0-18.3-1.4-36.9-1.4-55.3-.4-3.7.2-7.6.6-11.2.6-7.1,0-14.6-3.2-22.8.2,24.1,20.9,36.9,49.7,39.7,80.3Z"/>
    <path class="st19" d="M619,396.7c-48.9-62.6-135.6-78.9-204.5-36.7,11.7-25.7,30.1-47.7,52.4-65.2,36.8-28.9,93.1-42,135.3-19.1,30.8,14.7,57.6,35.4,80.6,63l-63.8,58ZM523,276.8c-24.7,5.3-46.1,19.2-64.7,36.5-2.5,2.3-21.4,21.5-19.5,24.5l25.3-6.4,20.2-3.7c17-3.1,34.8,2.1,51.8,5.3,5.3,1,10.6,3.3,15.9,4.7s6.4,2.3,9.8,3.9c21.5,10.4,41.2,23.7,57.7,42.9l51.7-46.4c-10.8-12.8-22.5-23.8-36.5-32-4.2-5.9-11.4-8.8-17.6-12.3-2.2-1.2-3.8-4.1-6.8-3.3-20.2-14.4-46-21.5-72.2-16.8-4.8.9-9.9.7-15,3.2Z"/>
    <path class="st32" d="M357.3,303.9c2.8,1,6.6.1,10,2.3l10.2,6.6c0,5.1,2.6,8,7.2,10,1,1.9-2,4.8-3,5.8-1.6,1.5-3.7-.2-6.5-.1.8,4.5,1.6,8.2-.3,10.6-7.3,8.8-15.5-5.8-23.8-2.5,0-4.6,3.1-4.8,6.7-5.3,5.5-.7,7.4-10,3.7-13.2s-8.1,0-8.6,2.7c-1.2,6.1-5.1,8.6-10.6,10.8,0,3.4,2.7,5.7,2.3,8.6-5.8,3.2-11.9,0-17.2,1.8s-9.1,6-10.1,10.9-4.2.7-5.2,2.9-1.8,5.8,1.3,7.8c4.5,2.9,10.4,3.7,14.3,7.7l.7,8.1c.2,2.6,1.9,2.6,3.6,1.1s1.8-2.6,1.8-4.4c0-5.1,4.8-8.7,6.8-13.7,0-.2,2.4-22,12.9-20.4,3.3.5,8.3.2,9.3,4.9s-.7,5.4,1.1,6.6c4,2.7,6.5-5.3,10.1-4.4,5.4,1.3,2.4,14.8,9.1,13.6l-9.9,20.4c-4.2.1-8.6-.4-11.5,2.8,5.3,1,1.2,6,4.2,7.3l-5.1,8.8c-25.7,5.2-7.1,10-20.4,14.7-15.5,11.7-5.9,16.9-15.1,23.3-7.4,5.2-13,13.1-9.4,22.4,2.1-2.7-.7-5.5,1.8-7.5.3,8.2,2.1,14.9-1.9,16.9-6.7,3.5-5.1-9.8-10.2-14.2s-9.6,1.4-14.6,1.8c-6.7.5-14,1.5-15.7,9.2-1.5,6.8-3.6,14.3-.5,20.6,1.8,3.6,6.2,5,8.6,2.7s5.6-5.6,9.2-7.3c3-1.4,5.8.4,6.5,2.2,1.5,3.8-5.6,9.4-2.3,12.9s3.6,1.7,6.2,2.1c10.3,1.6-1,18.5,10.6,21.6,4.1,1.1,8,0,12.2.6,2.2-5.2,6.7-7.7,11.3-8.5,9.1,47.4,35.8,89.9,77.8,114.7-5.9-4.1-7.6,24.1-17.2,26.1s-3,0-3.3,1.1c-.9,3.7,2.5,4.4.2,7.3s-2,1.3-4.3,1.7c-5.9.9-7.1,7.2-5.5,12.1.6,2.3-3.6,4.7-2.6,6.4s3.2,2.8,3.2,4.7-.6,2.8-1.6,4.1l-16.9-10.4c4-1.7-.4-5.7-2-8.5-5.7-9.3-4.6-20.7-7.8-30.1l-3.8-11.2c.6-1.2,1-1.7,1.4-2.4-2.8,5,3.8-17.1-12.4-26.5s-15.3-20.1-21.4-28.6c-5.1-7.2-7.2-22.8-3.3-27,4.2-4.5,7.3-14.5,1.6-18.9-3.8-.2-8.7.4-12.9-2s-5.9-7.2-7.6-11.7c-5.8-4.8-14-5.3-19.7-11s-8.2-.6-11.3-1.2c-.3-2.9-2.7-5.3-6.2-4.9-2.8-68.6,24-136.7,77.5-182-.4,2.7.1,5.5,2.9,6.9,2-2.8,4-3.9,4.3-6.1s-1.8-2.5-2-4.2c2-5.9,9.5-7,13.4-10.5Z"/>
    <path class="st5" d="M397.4,656.5c.2,1.9,1.5,3.1,3.7,4.1,57.8,25.1,122.8,23.6,179.8-1,1.1,1.6-.5,3.1-2.2,4.7-52.7,52.2-133.1,67.7-195.2,29.6.9-1.4,1.5-2.5,1.6-4.1s-1.8-2.4-3.2-4.7,3.2-4.2,2.6-6.4c-1.7-4.9-.5-11.2,5.5-12.1s3.2-.3,4.3-1.7c2.3-2.9-1.1-3.6-.2-7.3s1.9-.8,3.3-1.1Z"/>
    <path class="st13" d="M414.6,630.4c49.9,29.6,110.4,28,161.2,1.6,4.5,7.8,8.4,16.9,7,26-1-.1-2.9,0-1.9,1.6-57,24.6-122,26.1-179.8,1-2.2-1-3.5-2.2-3.7-4.1,9.5-1.9,11.3-30.2,17.2-26.1Z"/>
    <path class="st6" d="M267.2,504.6c5.5,45.9,46.7,104.6,85.7,129.2l3.8,11.2c3.2,9.4,2.1,20.9,7.8,30.1,1.7,2.7,6,6.7,2,8.5-63.7-39.1-102.6-111.2-105.5-183.9,3.4-.4,5.8,2,6.2,4.9Z"/>
    <path class="st28" d="M360.5,402c-15,26.1-24.9,54.1-25.5,84.3-2.7,3.7-25.3-17-30.6-4.2,9.7-.7,28.9,10.5,30.9,16.3.7,5.6.4,11.7,1.5,17.3-4.6.8-9.1,3.3-11.3,8.5-4.3-.6-8.2.5-12.2-.6-11.7-3.1-.4-20-10.6-21.6-2.6-.4-4.6-.4-6.2-2.1-3.3-3.5,3.8-9,2.3-12.9-.7-1.8-3.5-3.6-6.5-2.2-3.6,1.7-6.3,4.5-9.2,7.3s-6.8.9-8.6-2.7c-3.1-6.4-.9-13.8.5-20.6,1.7-7.7,9-8.7,15.7-9.2,5-.4,10.3-5.5,14.6-1.8s3.5,17.7,10.2,14.2c3.9-2.1,2.1-8.7,1.9-16.9-2.5,2,.3,4.8-1.8,7.5-3.6-9.2,2-17.2,9.4-22.4,9.2-6.5-.4-11.6,15.1-23.3,13.4-4.7-5.2-9.6,20.4-14.7Z"/>
    <path class="st14" d="M400.8,329.8c-3.8,10.3-12.8,22.4-17.9,32.8-6.7,1.2-3.7-12.2-9.1-13.6s-6.1,7.1-10.1,4.4-.7-4.3-1.1-6.6c-.9-4.6-5.9-4.4-9.3-4.9-10.4-1.5-12.8,20.3-12.9,20.4-2,5-6.9,8.6-6.8,13.7-2.1.4-3.3,2.6-5.4,3.2l-.7-8.1c-3.9-4-9.8-4.8-14.3-7.7s-2.6-5.2-1.3-7.8,4.9-1.1,5.2-2.9c1-4.9,5.8-9.3,10.1-10.9s11.4,1.4,17.2-1.8c.4-2.9-2.2-5.2-2.3-8.6,5.5-2.2,9.4-4.7,10.6-10.8.5-2.6,6-4.9,8.6-2.7,3.7,3.2,1.9,12.5-3.7,13.2-3.6.5-6.7.7-6.7,5.3,8.3-3.3,16.5,11.3,23.8,2.5s1.1-6.1.3-10.6c2.7,0,4.9,1.7,6.5.1s4.1-3.9,3-5.8c-4.5-2-7.1-4.9-7.2-10l-10.2-6.6c-3.4-2.2-7.2-1.3-10-2.3,12-10.6,27.1-17.1,41.6-24.3,1.6,3.2-3.5,4.8-9.1,7.3-1.8.8-1.9,6.2.4,6.3,5.3.2,12.2-.2,13.8,5.7s-.5,7.6,3.7,9.4c-3.2.7-3.8,2.6-3.7,3.1l1,4.9c-4.2,2.5-3.1,10-4.3,13.4Z"/>
    <path class="st12" d="M621.3,543c-9.8.6-57.4,3.3-58.6-1.3,14.6-15.6,16-36.9,5-56.2,25.6,10,45.8,31.1,53.6,57.4Z"/>
    <path class="st27" d="M458.7,269.1c-21.1,16.5-40.8,34.4-54.9,58.4-.7,1.2-2.2,2.5-3,2.3,1.2-3.4,0-11,4.3-13.4l-1-4.9c-.1-.5.5-2.5,3.7-3.1-4.2-1.7-2.8-5.8-3.7-9.4-1.6-5.9-8.5-5.5-13.8-5.7s-2.2-5.5-.4-6.3c5.6-2.5,10.7-4.1,9.1-7.3,5-2.5,10.3-3.9,15.3-6.1,1.5,4.6,41.9-11.3,44.5-4.5Z"/>
    <path class="st16" d="M533.2,542.6c-6.3-9.4-.6-26-12.7-18.8-.3-2.6,2.3-3.7,2.3-6.8l-23-6.2c8.5-2.2,15.6-2.9,22.9-6,0-2.8-1.9-4.1-2.3-5.9,11.5,5.7,6.8-9.4,12.6-19.7l6.1,21.4c3.4-.3,4.4-3.1,7.7-1.9-.9,1.5-4.4,5.3-2.3,6.4,6.4,3.5,13.7,2.7,21.3,5.9-7,4.1-15.8,1.8-22.3,6.7.4,1.4,1,2.6,1.5,3.4.7,1.2-.4,2.2-1.5,1.8s-2.3-1.4-3.8-1.4l-6.4,21.2ZM530,507.3c-2.4,2.1-1.9,5.5-.6,7,2.3,2.5,4.8,2.1,6.5.6s2.7-5.6,1.2-6.8c-2.3-1.9-4.8-2.8-7.1-.8Z"/>
    <path class="st8" d="M582.7,658c1.5-9.1-2.4-18.2-7-26,16.9-8.8,29.9-24.3,43.7-36.7-3,17.3-24.8,56.3-36.7,62.8Z"/>
    <path class="st10" d="M458.7,269.1c-2.6-6.8-43,9.1-44.5,4.5,17.4-5.5,35-11.6,55-11.6-2.5,3.8-7.3,4.7-10.5,7.2Z"/>
    <path class="st11" d="M335,486.4c0,3.9-.2,8.2.3,12.1-2-5.8-21.2-17-30.9-16.3,5.3-12.7,27.9,8,30.6,4.2Z"/>
    <path class="st23" d="M527.9,486.9c-12.1,2.4-14.7,11.1-21.4,20.7-7.5-11,24.1-33.5,21.4-20.7Z"/>
    <path class="st3" d="M529,538.1c-12.6,1.4-24.5-10.2-23.3-23.9,6.7,10,11.4,17.2,23.3,23.9Z"/>
    <path class="st29" d="M556,503.7c-1.4-10.8-11.7-12.3-18.9-19.7,12-1.8,22.4,9.8,23.7,21.1s-4.5.7-4.8-1.4Z"/>
    <path class="st22" d="M561.4,518.3c-3.5,11-12.6,21.7-24.9,19.9,9.3-7.4,18.7-9.9,20.5-21.5.9-1.4,4.6-2.3,4.4,1.6Z"/>
    <path class="st2" d="M373,383l-7.4,10.2c-3-1.3,1.1-6.3-4.2-7.3,2.9-3.2,7.3-2.7,11.5-2.8Z"/>
    <path class="st9" d="M338.6,317.7c1.5-1.3,3.3-2.6,5.3-3.3.2,1.6,2.2,2.5,2,4.2s-2.3,3.3-4.3,6.1c-2.8-1.5-3.4-4.2-2.9-6.9Z"/>
    <path class="st25" d="M651.5,608.8c5.3,3.9,6.6-4.6,10.5-5.6,0,7.6-7.1,19.6-6.9,23.1s2.3,3.8,5,2.5c5.9-2.8,8.5-9.5,11.1-15l7.5-15.9c.9-2,.4-4-1.2-5.4-2.8-2.3-8.1,10.7-13.8,9.1,28.9-34.7,50.8-77.1,53.1-122.5,2.6-.3,3.4.4,3.5,3.5,1.9,87.3-44,170.2-122.2,210.4,24.4-24.9,42.4-52.5,53.4-84.3Z"/>
    <path class="st32" d="M641.7,479.3c3.4,5.6,3.4,13.3,7.9,18.5,4.3,6,6.6,11.9,13.3,17,1.3,1.2,2.2-1.9,4.1-3.4s-.5-3.2-1-5.1c-4.8-19.1-12.8-15.8-13.2-27.6,18.4-1,36.9-1,55.3.4-2.4,22.2-15.3,20.1-18,24.1-7.3,10.7-27.6,6.3-22.3,14,3,4.3,12.5-2,18.3-1.2,4.1,6.6-.6,10.8-2.4,16-6.3,18.7-11.6,16.5-25.3,27.8-2.8-30.6-15.6-59.4-39.7-80.3,8.3-3.4,15.7-.3,22.8-.2Z"/>
    <path class="st17" d="M716.9,479.1c-2.3,45.3-24.2,87.8-53.1,122.5-.2.8-.9,1.4-1.8,1.6-3.9,1-5.2,9.5-10.5,5.6,5.7-16.4,7.1-32.7,7.1-49,13.6-11.3,19-9.1,25.3-27.8,1.8-5.2,6.5-9.4,2.4-16-5.9-.8-15.4,5.5-18.3,1.2-5.3-7.8,15-3.4,22.3-14,2.7-4,15.6-1.9,18-24.1,3.4.3,6.2-1.3,8.7,0Z"/>
    <path class="st1" d="M641.7,479.3c3.6,0,7.5-.4,11.2-.6.3,11.8,8.4,8.5,13.2,27.6s2.3,4,1,5.1-2.8,4.6-4.1,3.4c-6.7-5.2-9.1-11.1-13.3-17-4.6-5.2-4.5-12.9-7.9-18.5Z"/>
    <path class="st33" d="M610.2,290.4c-4.2,3.7-6.1,7.1-4.9,12.8s5.5,8.3,11.4,7c-.7-3.6-5-5.9-4.5-9.6.4-2.7,4.2-4.4,4.8-6.9,6.2,3.5,13.4,6.4,17.6,12.3.2,1.8-.3,3.7-.3,5.6,0,3.9-18.6,5-21.5,6.2s-6.9,2.7-11.3,2.7-5.1,8-9.6,7.1-1.9,2.7-3.1,2.3-5.7-5.8-5.3-6.3c2.3-2.9,6.6,2.1,9.1-2.3s-.4-3.4-2.7-3.9c-9.7-2.1-17.9-6.1-27.1-8.8-9.9-2.9-19.9,7-22.6,16.1s-5.9,4.8-4.1,8.4c-17-3.2-34.9-8.4-51.8-5.3-1.4-.9-1.2-3.9-2.6-5.2-6.8-2.5-14-1.2-20.5,2.4,1.2,2.5,2.4,4.4,2.9,6.5l-25.3,6.4c-1.9-3.1,17-22.2,19.5-24.5,18.6-17.3,40.1-31.2,64.7-36.5,3.1,4.6,7.3,9.1,13,11.7,3.2-13,11.9-8.2,10.3-12.8s-10.5.8-8.2-2.1c26.2-4.7,52,2.4,72.2,16.8Z"/>
    <path class="st32" d="M561.8,341.6c-2.8-9.8,10.6-13.4,1-18.3s-4.7.6-5.6,2.7l-5.1,11.7c-5.3-1.3-10.6-3.7-15.9-4.7-1.9-3.6,3-4.8,4.1-8.4,2.8-9.1,12.8-19,22.6-16.1,9.2,2.7,17.4,6.7,27.1,8.8,2.3.5,3.6,2.2,2.7,3.9-2.5,4.4-6.8-.5-9.1,2.3s3.6,5.7,5.3,6.3,2.1-2.5,3.1-2.3c4.5.8,6.7-7.2,9.6-7.1,4.4,0,7.9-1.3,11.3-2.7s21.4-2.2,21.5-6.2.5-3.8.3-5.6c14.1,8.3,25.8,19.3,36.5,32l-51.7,46.4c-16.5-19.2-36.2-32.5-57.7-42.9Z"/>
    <path class="st0" d="M484.3,327.7l-20.2,3.7c-.5-2.2-1.7-4-2.9-6.5,6.4-3.6,13.7-4.8,20.5-2.4,1.4,1.4,1.2,4.4,2.6,5.2Z"/>
    <path class="st15" d="M523,276.8c5.1-2.5,10.2-2.3,15-3.2-2.3,2.9,7.6.3,8.2,2.1,1.6,4.6-7.1-.2-10.3,12.8-5.7-2.6-9.9-7.1-13-11.7Z"/>
    <path class="st24" d="M617,293.7c-.5,2.5-4.4,4.2-4.8,6.9-.5,3.7,3.8,5.9,4.5,9.6-6,1.3-10.4-2.1-11.4-7s.8-9.1,4.9-12.8c3-.8,4.6,2.1,6.8,3.3Z"/>
    <path class="st4" d="M561.8,341.6c-3.3-1.6-7.1-3.3-9.8-3.9l5.1-11.7c.9-2,3.8-3.6,5.6-2.7,9.6,4.9-3.8,8.5-1,18.3Z"/>
    <path class="st7" d="M352.9,633.8c-39-24.6-80.2-83.4-85.7-129.2,3.1.6,8.8-1.3,11.3,1.2,5.7,5.7,13.9,6.1,19.7,11,1.8,4.5,2.6,8.9,7.6,11.7s9.1,1.8,12.9,2c5.7,4.4,2.7,14.4-1.6,18.9-3.9,4.2-1.9,19.8,3.3,27,6.1,8.5,8.4,21.1,21.4,28.6s9.6,31.5,12.4,26.5c-.4.7-.8,1.2-1.4,2.4Z"/>
    <path class="st21" d="M328.3,379.3c2-.6,3.2-2.8,5.4-3.2,0,1.8-.2,2.9-1.8,4.4s-3.4,1.4-3.6-1.1Z"/>
    <path class="st20" d="M530,507.3c2.3-2,4.8-1.1,7.1.8s.6,5.2-1.2,6.8-4.2,1.9-6.5-.6-1.9-4.9.6-7Z"/>
    <path class="st18" d="M662,603.2c.8-.2,1.6-.7,1.8-1.6,5.7,1.7,10.9-11.4,13.8-9.1s2.1,3.4,1.2,5.4l-7.5,15.9c-2.6,5.5-5.2,12.2-11.1,15-2.8,1.3-5-.9-5-2.5-.2-3.4,6.9-15.5,6.9-23.1Z"/>
  </g>
  <text/>
  <text/>
</svg>